<svg width="24" height="24" viewBox="0 0 24 24" fill="none" xmlns="http://www.w3.org/2000/svg">
<g clip-path="url(#clip0_7_3149)">
<path d="M10 17C13.866 17 17 13.866 17 10C17 6.13401 13.866 3 10 3C6.13401 3 3 6.13401 3 10C3 13.866 6.13401 17 10 17Z" fill="#FFB919"/>
<path opacity="0.8" d="M18.0305 16.6176L22.3135 20.9006L20.8995 22.3146L16.6175 18.0316C14.8203 19.4673 12.5416 20.1605 10.2494 19.9687C7.95712 19.7768 5.82532 18.7146 4.29179 17.0001C2.75826 15.2856 1.93942 13.0489 2.00343 10.7496C2.06744 8.45018 3.00944 6.26258 4.63598 4.63604C6.26252 3.00951 8.45012 2.0675 10.7495 2.00349C13.0489 1.93948 15.2855 2.75832 17 4.29185C18.7145 5.82538 19.7768 7.95718 19.9686 10.2494C20.1604 12.5417 19.4663 14.8204 18.0305 16.6176ZM16.0245 15.8756C17.3108 14.5497 18.0209 12.7691 17.9999 10.9218C17.9789 9.07463 17.2286 7.31061 15.9124 6.01429C14.5963 4.71796 12.8211 3.99444 10.9738 4.00144C9.1265 4.00844 7.35684 4.74539 6.05058 6.05164C4.74432 7.3579 4.00738 9.12756 4.00038 10.9749C3.99338 12.8222 4.7169 14.5974 6.01322 15.9135C7.30955 17.2296 9.07357 17.9799 10.9208 18.0009C12.768 18.0219 14.5486 17.3119 15.8745 16.0256L16.0245 15.8756Z" fill="#212121"/>
</g>
<defs>
<clipPath id="clip0_7_3149">
<rect width="24" height="24" fill="white"/>
</clipPath>
</defs>
</svg>
